# xmcd
#
# Track frame offsets:
#	150
#	17277
#	41926
#	64557
#	97732
#	109685
#	130982
#	144576
#	159061
#	186915
#	216046
#	235588
#	253321
#	272271
#
# Disc length: 3874 seconds
# Revision: 1
# Processed by: cddbd v1.5.2PL0 Copyright (c) Steve Scherf et al.
# Submitted via: dBpowerAMP V12.0
#
DISCID=b20f200e
DTITLE=Roomful of Blues - 45 Live
DYEAR=2013
DGENRE=Blues
TTITLE0=Just Keep On Rockin'
TTITLE1=It All Went Down The Drain
TTITLE2=Jambalaya
TTITLE3=Easy Baby
TTITLE4=That's Right!
TTITLE5=Crawdad Hole
TTITLE6=You Don't Know
TTITLE7=Dress Up To Get Messed Up
TTITLE8=Straight Jacquet
TTITLE9=I Left My Baby
TTITLE10=Blue, Blue World
TTITLE11=Somebody's Got To Go
TTITLE12=Turn It On, Turn It Up
TTITLE13=Flip Flap Jack
EXTD=
EXTT0=
EXTT1=
EXTT2=
EXTT3=
EXTT4=
EXTT5=
EXTT6=
EXTT7=
EXTT8=
EXTT9=
EXTT10=
EXTT11=
EXTT12=
EXTT13=
PLAYORDER=
